HIERARCHY
ROOT HipCenter
{
	OFFSET 0 0 0
	CHANNELS 6 Xposition Yposition Zposition Xrotation Yrotation Zrotation 
	JOINT HipCenter2
	{
		OFFSET 0 0 0
		CHANNELS 3 Xrotation Yrotation Zrotation 
		JOINT Spine
		{
			OFFSET 0 6.19 0
			CHANNELS 3 Xrotation Yrotation Zrotation 
			JOINT ShoulderCenter
			{
				OFFSET 0 30.92 0
				CHANNELS 3 Xrotation Yrotation Zrotation 
				JOINT CollarLeft
				{
					OFFSET 0 0 0
					CHANNELS 3 Xrotation Yrotation Zrotation 
					JOINT ShoulderLeft
					{
						OFFSET 17.1 0 0
						CHANNELS 3 Xrotation Yrotation Zrotation 
						JOINT ElbowLeft
						{
							OFFSET 21.49 0 0
							CHANNELS 3 Xrotation Yrotation Zrotation 
							JOINT WristLeft
							{
								OFFSET 20.28 0 0
								CHANNELS 3 Xrotation Yrotation Zrotation 
								End Site
								{
									OFFSET 6.79 0 0
								}
							}
						}
					}
				}
				JOINT Neck
				{
					OFFSET 0 0 0
					CHANNELS 3 Xrotation Yrotation Zrotation 
					JOINT Head
					{
						OFFSET 0 22.07 0
						CHANNELS 3 Xrotation Yrotation Zrotation 
						End Site
						{
							OFFSET 0 0 0
						}
					}
				}
				JOINT CollarRight
				{
					OFFSET 0 0 0
					CHANNELS 3 Xrotation Yrotation Zrotation 
					JOINT ShoulderRight
					{
						OFFSET -16.08 0 0
						CHANNELS 3 Xrotation Yrotation Zrotation 
						JOINT ElbowRight
						{
							OFFSET -24.64 0 0
							CHANNELS 3 Xrotation Yrotation Zrotation 
							JOINT WristRight
							{
								OFFSET -23.4 0 0
								CHANNELS 3 Xrotation Yrotation Zrotation 
								End Site
								{
									OFFSET -11.41 0 0
								}
							}
						}
					}
				}
			}
		}
	}
	JOINT HipLeft
	{
		OFFSET 7.46 0 0
		CHANNELS 3 Xrotation Yrotation Zrotation 
		JOINT KneeLeft
		{
			OFFSET 0 -51.41 0
			CHANNELS 3 Xrotation Yrotation Zrotation 
			JOINT AnkleLeft
			{
				OFFSET 0 -43.69 0
				CHANNELS 3 Xrotation Yrotation Zrotation 
				End Site
				{
					OFFSET 0 0 4.81
				}
			}
		}
	}
	JOINT HipRight
	{
		OFFSET -7.99 0 0
		CHANNELS 3 Xrotation Yrotation Zrotation 
		JOINT KneeRight
		{
			OFFSET 0 -51.03 0
			CHANNELS 3 Xrotation Yrotation Zrotation 
			JOINT AnkleRight
			{
				OFFSET 0 -37.39 0
				CHANNELS 3 Xrotation Yrotation Zrotation 
				End Site
				{
					OFFSET 0 0 5.32
				}
			}
		}
	}
}
MOTION
Frames: 23
Frame Time: 0.0333333
-62.17 109.61 58.48 0 -27.4609 0 -29.5511 0 -5.2216 30 0 0 -1.8189 0.0873 0.8694 0 0 0 48.282 -44.5643 42.8782 -2.1679 0.2949 7.742 1.4962 0 -2.7462 -1.2678 3.1679 -9.2558 0 0 0 0 0 0 32.2477 -5.0305 48.1295 14.3834 -1.7511 -6.795 1.2531 0 -0.0096 -7.4218 0.1747 7.7506 16.418 0.5443 -4.827 0 0 0 -2.8733 -0.3514 -5.6376 15.173 -0.3414 3.7657 0 0 0 
-62.32 109.46 58.09 0 -26.9301 0 -29.5438 0 -5.4059 30 0 0 -1.7503 0.1151 0.7547 0 0 0 43.0642 -44.9828 30.9179 0.693 -0.0654 5.3913 -5.0296 0 15.9663 -1.632 3.2822 -9.7834 0 0 0 0 0 0 31.6964 -4.0796 45.1427 15.1392 -2.3408 -8.5847 2.9762 0 -2.1959 -7.5052 0.1686 7.7298 16.5337 0.5526 -4.8132 0 0 0 -2.9578 -0.336 -5.4563 15.852 -0.3339 3.2541 0 0 0 
-62.48 111.31 58.65 0 -25.7486 0 -29.5058 0 -5.7009 30 0 0 -1.862 0.1204 0.8495 0 0 0 45.2986 -44.7762 36.116 -0.9228 0.0169 1.0509 -2.5788 0 8.1682 -2.0101 3.4153 -10.3956 0 0 0 0 0 0 31.0518 -2.1739 51.6318 0 0 -30.6444 -8.2492 0 -23.1733 -7.7677 0.1519 7.785 17.8117 0.7597 -5.5199 0 0 0 -2.8873 -0.3412 -5.4852 15.7382 -0.3532 3.5103 0 0 0 
-62.37 111.22 58.69 0 -24.2253 0 -29.3595 0 -5.6163 30 0 0 -1.9689 0.1523 0.9956 0 0 0 37.2782 -46.4635 16.8555 2.0726 -0.4699 12.7695 1.9446 0 9.868 -2.9743 3.5337 -11.3802 0 0 0 0 0 0 30.7881 -2.0035 42.9406 0 0 -21.9346 -3.2033 0 -22.1518 -8.0295 0.1304 7.5714 17.1253 0.5592 -4.4643 0 0 0 -2.8379 -0.3474 -5.5472 16.1833 -0.3911 3.6055 0 0 0 
-62.74 111.91 58.6 0 -21.8354 0 -29.1285 0 -6.1589 30 0 0 -2.0662 0.1275 0.8211 0 0 0 37.6533 -48.3488 16.9504 3.5014 -0.3278 5.3412 -1.2597 0 15.4371 -2.7273 3.5821 -11.3612 0 0 0 0 0 0 30.5872 -1.6138 39.986 0 0 -30.5031 1.697 0 -9.3537 -8.6011 0.0869 7.1062 18.3773 0.6238 -4.2279 0 0 0 -2.7506 -0.3406 -5.3728 15.8428 -0.3994 3.8969 0 0 0 
-62.6 112.78 58.9 0 -20.2169 0 -28.9204 0 -6.4005 30 0 0 -2.1201 0.1183 0.6846 0 0 0 33.7507 -49.3931 8.145 4.6996 -0.7296 8.8054 8.8154 0 11.2958 -2.7855 3.7069 -11.7869 0 0 0 0 0 0 30.5691 -1.7061 36.891 0 0 -30.5794 -4.4803 0 -14.9046 -9.0285 0.0598 7.0428 18.6539 0.6164 -4.0428 0 0 0 -2.9845 -0.3154 -5.1423 17.0189 -0.4538 3.6804 0 0 0 
-62.67 112.8 59.07 0 -17.9046 0 -28.648 0 -6.3146 30 0 0 -2.1796 0.1468 0.6849 0 0 0 31.7297 -51.1858 3.6104 7.2093 -0.9145 7.1915 3.3761 0 8.8644 -2.2588 4.7703 -14.5705 0 0 0 0 0 0 30.6448 -2.2305 32.2425 0 0 -34.1179 -13.8317 0 -5.8172 -9.5902 0.0239 6.6779 18.7501 0.4839 -3.1407 0 0 0 -3.1536 -0.3053 -5.1001 18.0624 -0.5798 4.0861 0 0 0 
-62.2 113.53 59.24 0 -16.2718 0 -28.4379 0 -7.4661 30 0 0 -2.2285 0.153 0.1336 0 0 0 31.7745 -50.7206 3.7427 4.5843 -0.3282 4.0861 1.5594 0 3.6823 -2.1283 4.6743 -14.1833 0 0 0 0 0 0 30.8489 -3.8934 24.591 0 0 -27.1398 -10.3911 0 -17.211 -10.1571 -0.0091 6.6292 19.1817 0.4695 -2.9019 0 0 0 -3.4262 -0.2919 -5.0785 19.0151 -0.7172 4.5112 0 0 0 
-60.93 112.08 59.02 0 -14.063 0 -28.0543 0 -7.5531 30 0 0 -2.2297 0.1753 0.3161 0 0 0 22.8806 -53.6123 -14.0378 12.6064 -1.9069 8.4629 4.4586 0 7.2493 -1.693 5.3177 -15.6486 0 0 0 0 0 0 30.6782 -4.1574 18.5215 0 0 -23.1009 -17.0872 0 -14.8534 -10.8105 -0.0451 6.3682 19.6479 0.4109 -2.4158 0 0 0 -3.5327 -0.2892 -5.1161 19.4584 -0.8667 5.1882 0 0 0 
-61.64 113.92 59.58 0 -11.5009 0 -27.6301 0 -7.5911 30 0 0 -2.2695 0.2168 0.3523 0 0 0 20.3587 -53.2961 -19.0801 12.6171 -1.6921 7.5149 4.5133 0 5.6958 -0.7932 6.8532 -18.9075 0 0 0 0 0 0 30.7854 -5.2853 16.8941 0 0 -23.4583 -2.2653 0 -23.1814 -11.5268 -0.0832 6.2346 20.1578 0.3314 -1.8489 0 0 0 -3.5718 -0.294 -5.2323 19.3333 -1.0233 6.2017 0 0 0 
-61.6 113.11 59.51 0 -9.2841 0 -26.7975 0 -9.2108 30 0 0 -2.0906 0.1885 -0.4973 0 0 0 17.4112 -53.0924 -24.9008 13.5804 -1.6275 6.7055 9.3714 0 12.2565 -0.9963 5.6692 -16.0045 0 0 0 0 0 0 30.6445 -5.9247 12.406 0 0 -25.8247 4.0266 0 -3.5154 -12.2048 -0.1202 6.2389 20.6594 0.2799 -1.4869 0 0 0 -3.5698 -0.2943 -5.2348 19.2883 -1.14 6.9358 0 0 0 
-61.94 113.7 59.51 0 -6.6127 0 -26.0689 0 -9.4773 30 0 0 -2.1122 0.2013 -0.4712 0 0 0 22.1166 -51.7306 -16.1777 7.4178 -0.161 1.2368 0.003 0 6.5863 -1.1234 6.0359 -17.0944 0 0 0 0 0 0 30.4575 -6.976 7.4945 0 0 -24.8268 -6.9209 0 -17.7167 -13.0779 -0.175 6.5075 21.2786 0.2553 -1.2801 0 0 0 -3.9441 -0.2807 -5.3023 20.1706 -1.462 8.0944 0 0 0 
-62.37 114.12 59.61 0 -3.8529 0 -24.6125 0 -10.5393 30 0 0 -1.9126 0.1656 -0.76 0 0 0 12.6761 -51.882 -34.7775 15.2645 -1.6046 5.8585 -0.1469 0 12.0926 -2.4821 5.0797 -15.6693 0 0 0 0 0 0 30.2402 -8.4207 3.2617 0 0 -24.3964 4.3333 0 -3.8603 -13.9503 -0.2399 6.947 21.81 0.2639 -1.2619 0 0 0 -4.2019 -0.268 -5.2882 21.2828 0 8.8588 0 0 0 
-62.19 113.33 59.81 0 2.8865 0 -21.372 0 -12.6905 30 0 0 -1.8571 0.2311 -0.5294 0 0 0 10.2924 -48.9192 -41.7994 12.3493 -2.0502 9.2804 2.9324 0 11.8431 -2.2683 6.1254 -18.4545 0 0 0 0 0 0 29.6236 -10.3092 -4.1709 0 0 -21.7521 9.1094 0 -4.295 -15.9633 -0.4377 8.3876 22.6978 0.2834 -1.2575 0 0 0 -5.152 -0.2198 -5.189 24.022 0 10.6844 0 0 0 
-62.77 114.05 59.88 0 4.5632 0 -20.0952 0 -13.8916 30 0 0 -1.9017 0.2232 -0.56 0 0 0 10.2036 -49.4846 -41.4778 10.9039 -1.3798 7.1249 3.0895 0 10.444 -4.1199 4.7508 -16.232 0 0 0 0 0 0 29.241 -10.2167 -8.4754 0 0 -21.6368 4.8232 0 -12.78 -16.3493 -0.4835 8.7002 22.4725 0.2784 -1.2586 0 0 0 -5.7146 -0.1782 -4.7605 25.1261 0 10.5812 0 0 0 
-62.8 113.66 59.87 0 5.9515 0 -19.3606 0 -14.8408 30 0 0 -2.0045 0.2711 -0.6762 0 0 0 13.5745 -49.0456 -35.1114 4.9494 -0.1093 1.2625 0.9019 0 5.2482 -2.9946 4.8748 -15.5285 0 0 0 0 0 0 28.9068 -9.3972 -13.2418 0 0 -22.9128 7.942 0 -13.4509 -16.7204 -0.5325 9.0508 22.5428 0.3197 -1.4365 0 0 0 -6.8772 -0.1502 -5.5058 26.4672 0 12.2211 0 0 0 
-63.13 112.74 59.77 0 7.2356 0 -18.3539 0 -15.4311 30 0 0 -2.1516 0.3153 -0.4882 0 0 0 6.2035 -47.745 -50.9174 10.9334 -1.0809 5.5773 4.2725 0 13.0517 -3.5189 4.7165 -15.5319 0 0 0 0 0 0 28.4138 -9.112 -19.7109 10.199 -1.3635 -7.5341 20.752 0 -11.4338 -17.1476 -0.5984 9.559 22.6147 0.3826 -1.7092 0 0 0 -7.4054 -0.1252 -5.526 26.9386 0 12.5614 0 0 0 
-63.42 113.19 60.89 0 8.1028 0 -17.1576 0 -16.4136 30 0 0 -2.0236 0.3009 -0.6939 0 0 0 2.4911 -46.3747 -59.4929 0 0 20.8172 -3.1384 0 3.8524 -4.191 4.5272 -15.5772 0 0 0 0 0 0 28.1924 -9.6992 -21.0664 0 0 -23.0107 5.6984 0 -8.5956 -17.6509 -0.6715 10.0166 22.9173 0.4716 -2.0555 0 0 0 -8.1541 -0.094 -5.8308 28.1376 0 13.1569 0 0 0 
-63.65 112.52 61.34 0 8.7392 0 -16.0423 0 -16.8674 30 0 0 -2.0119 0.2203 -0.7816 0 0 0 7.2187 -48.2845 -48.4071 6.2707 -0.3163 2.876 2.8387 0 5.2469 -4.8052 3.9636 -14.279 0 0 0 0 0 0 27.032 -11.7575 -28.2455 11.7543 -1.9034 -9.0694 11.6357 0 -8.9241 -18.1713 -0.7452 10.4036 23.2671 0.6002 -2.5438 0 0 0 -9.2411 -0.0421 -6.3428 29.36 0 13.7095 0 0 0 
-63.84 112.37 61.75 0 10.0056 0 -14.8669 0 -17.2248 30 0 0 -1.5439 0.1695 -1.1452 0 0 0 6.2017 -47.8791 -50.7806 6.5591 -0.2047 1.7796 3.8039 0 7.2326 -5.7412 3.67 -14.1373 0 0 0 0 0 0 26.9432 -10.816 -31.4806 14.0184 -2.9115 -11.4993 10.9958 0 -9.6329 -18.725 -0.7986 10.4399 23.2313 0 -3.8992 0 0 0 -10.0384 0.0023 -6.7927 30.4956 0 14.3291 0 0 0 
-63.32 111.31 61.97 0 11.2397 0 -13.7258 0 -17.9884 30 0 0 -1.7191 0.1817 -1.0971 0 0 0 5.3952 -46.6454 -53.6626 6.4242 -0.3806 3.3762 1.7249 0 1.3891 -6.1787 2.8632 -11.4775 0 0 0 0 0 0 26.1272 -12.2184 -35.0607 12.1308 -2.4557 -11.2736 14.6756 0 -13.4068 -19.7625 -0.9504 11.0947 23.9406 0 -4.6259 0 0 0 -10.8511 0.0525 -7.0601 31.0233 0 14.2356 0 0 0 
-63.5 111.41 62.68 0 12.2155 0 -12.8185 0 -17.932 30 0 0 -1.9261 0.3907 -0.9557 0 0 0 3.5235 -43.143 -61.5091 7.7709 -0.4157 3.0432 13.9637 0 2.3156 -6.1545 3.0532 -12.1945 0 0 0 0 0 0 25.9566 -11.3467 -39.1231 11.6845 -2.4368 -11.6175 10.6775 0 0.9432 -20.714 -1.0889 11.5731 24.1875 0 -4.9044 0 0 0 -11.85 0.1133 -7.0093 32.633 0 14.0397 0 0 0 
-63.25 111.01 63.19 0 13.4372 0 -11.5971 0 -17.5805 30 0 0 -1.3974 0.2303 -0.9623 0 0 0 0.6706 -43.8613 -66.0446 12.1277 -0.7983 3.7097 -2.9094 0 -2.2067 -6.9003 2.9357 -12.4123 0 0 0 0 0 0 26.2122 -10.022 -41.3254 12.548 -2.1815 -9.7048 14.1444 0 -12.7879 -21.2217 -1.1311 11.4751 24.4727 0 -5.0824 0 0 0 -12.6601 0.1589 -6.8364 34.0337 0 13.632 0 0 0 
